<svg width="24" height="24" viewBox="0 0 24 24" fill="none" xmlns="http://www.w3.org/2000/svg">
<path d="M22.7745 3.22567C22.9189 3.37049 23 3.56663 23 3.77112C23 3.97561 22.9189 4.17175 22.7745 4.31657L21.1627 5.92974L18.0719 2.83938L19.6838 1.2262C19.8287 1.08137 20.0252 1 20.2301 1C20.435 1 20.6315 1.08137 20.7764 1.2262L22.7745 3.22413V3.22567ZM20.0701 7.02064L16.9794 3.93027L6.45067 14.4591C6.36562 14.5442 6.30159 14.6479 6.26368 14.762L5.01965 18.4921C4.99709 18.5601 4.99389 18.633 5.0104 18.7027C5.02691 18.7724 5.06249 18.8362 5.11316 18.8869C5.16383 18.9375 5.22759 18.9731 5.29731 18.9896C5.36704 19.0061 5.43998 19.0029 5.50799 18.9804L9.23854 17.7365C9.35254 17.699 9.45624 17.6355 9.54144 17.5511L20.0701 7.02064Z" fill="#6E6893"/>
<path fill-rule="evenodd" clip-rule="evenodd" d="M1 20.6429C1 21.268 1.24834 21.8676 1.69039 22.3096C2.13244 22.7517 2.73199 23 3.35714 23H20.6429C21.268 23 21.8676 22.7517 22.3096 22.3096C22.7517 21.8676 23 21.268 23 20.6429V11.2143C23 11.0059 22.9172 10.8061 22.7699 10.6587C22.6225 10.5114 22.4227 10.4286 22.2143 10.4286C22.0059 10.4286 21.8061 10.5114 21.6587 10.6587C21.5114 10.8061 21.4286 11.0059 21.4286 11.2143V20.6429C21.4286 20.8512 21.3458 21.0511 21.1984 21.1984C21.0511 21.3458 20.8512 21.4286 20.6429 21.4286H3.35714C3.14876 21.4286 2.94891 21.3458 2.80156 21.1984C2.65421 21.0511 2.57143 20.8512 2.57143 20.6429V3.35714C2.57143 3.14876 2.65421 2.94891 2.80156 2.80156C2.94891 2.65421 3.14876 2.57143 3.35714 2.57143H13.5714C13.7798 2.57143 13.9797 2.48865 14.127 2.3413C14.2744 2.19395 14.3571 1.9941 14.3571 1.78571C14.3571 1.57733 14.2744 1.37748 14.127 1.23013C13.9797 1.08278 13.7798 1 13.5714 1H3.35714C2.73199 1 2.13244 1.24834 1.69039 1.69039C1.24834 2.13244 1 2.73199 1 3.35714V20.6429Z" fill="#6E6893"/>
</svg>
